<?xml version="1.0" encoding="UTF-8"?>
<svg width="32" height="32" viewBox="0 0 32 32" fill="none" xmlns="http://www.w3.org/2000/svg">
  <path d="M28 16L24 12H20V8H8V24H10C10 25.657 11.343 27 13 27C14.657 27 16 25.657 16 24H20C20 25.657 21.343 27 23 27C24.657 27 26 25.657 26 24H28V16ZM13 25C12.447 25 12 24.553 12 24C12 23.447 12.447 23 13 23C13.553 23 14 23.447 14 24C14 24.553 13.553 25 13 25ZM20 14H23.172L25.172 16H20V14ZM23 25C22.447 25 22 24.553 22 24C22 23.447 22.447 23 23 23C23.553 23 24 23.447 24 24C24 24.553 23.553 25 23 25Z" fill="#28A745"/>
  <path d="M12 12H16V14H12V12ZM12 16H18V18H12V16Z" fill="#28A745"/>
</svg> 